<?xml version="1.0" encoding="utf-8"?>
<svg xmlns="http://www.w3.org/2000/svg" height="30px" viewBox="0 -960 960 960" width="30px" fill="#EAC452">
  <path d="M 202 -160 L 202 -226.67 L 758 -226.67 L 758 -160 L 202 -160 Z M 201.33 -302.67 L 149 -632.33 C 146.333 -631.443 143.723 -630.833 141.17 -630.5 C 138.61 -630.167 135.997 -630 133.33 -630 C 118.443 -630 105.833 -635.167 95.5 -645.5 C 85.167 -655.833 80 -668.443 80 -683.33 C 80 -698.223 85.167 -710.947 95.5 -721.5 C 105.833 -732.053 118.443 -737.33 133.33 -737.33 C 148.223 -737.33 160.947 -732.053 171.5 -721.5 C 182.053 -710.947 187.33 -698.223 187.33 -683.33 C 187.33 -678.223 186.61 -673.223 185.17 -668.33 C 183.723 -663.443 181.667 -659.11 179 -655.33 L 319.33 -592.67 L 455 -779 C 446.333 -783.447 439.333 -789.89 434 -798.33 C 428.667 -806.777 426 -816.223 426 -826.67 C 426 -841.557 431.277 -854.167 441.83 -864.5 C 452.39 -874.833 465.113 -880 480 -880 C 494.887 -880 507.61 -874.833 518.17 -864.5 C 528.723 -854.167 534 -841.557 534 -826.67 C 534 -816.223 531.333 -806.777 526 -798.33 C 520.667 -789.89 513.667 -783.447 505 -779 L 640.67 -592.67 L 781 -655.33 C 778.333 -659.11 776.277 -663.443 774.83 -668.33 C 773.39 -673.223 772.67 -678.223 772.67 -683.33 C 772.67 -698.223 777.947 -710.947 788.5 -721.5 C 799.053 -732.053 811.553 -737.33 826 -737.33 C 840.887 -737.33 853.61 -732.053 864.17 -721.5 C 874.723 -710.947 880 -698.223 880 -683.33 C 880 -668.443 874.723 -655.833 864.17 -645.5 C 853.61 -635.167 840.887 -630 826 -630 C 823.333 -630 820.833 -630.277 818.5 -630.83 C 816.167 -631.39 813.667 -632.113 811 -633 L 758.67 -302.67 L 201.33 -302.67 Z M 480 -369.33 Z"/>
</svg>