<?xml version="1.0" encoding="utf-8"?>
<svg xmlns="http://www.w3.org/2000/svg" height="30px" viewBox="0 -960 960 960" width="30px" fill="#EA3323">
  <path d="M 480 -120.67 L 433.33 -162.67 C 363.877 -226.057 306.46 -280.737 261.08 -326.71 C 215.693 -372.683 179.557 -413.837 152.67 -450.17 C 125.777 -486.503 106.943 -519.557 96.17 -549.33 C 85.39 -579.11 80 -609.333 80 -640 C 80 -700.96 100.443 -751.867 141.33 -792.72 C 182.223 -833.573 232.89 -854 293.33 -854 C 330.223 -854 364.67 -845.557 396.67 -828.67 C 428.67 -811.777 456.447 -787.553 480 -756 C 506.22 -788.887 534.997 -813.443 566.33 -829.67 C 597.663 -845.89 631.11 -854 666.67 -854 C 727.11 -854 777.777 -833.573 818.67 -792.72 C 859.557 -751.867 880 -700.96 880 -640 C 880 -609.333 874.61 -579.11 863.83 -549.33 C 853.057 -519.557 834.223 -486.503 807.33 -450.17 C 780.443 -413.837 744.307 -372.683 698.92 -326.71 C 653.54 -280.737 596.123 -226.057 526.67 -162.67 L 480 -120.67 Z M 480 -498.33 Z" style="fill-rule: nonzero; paint-order: fill;"/>
</svg>